PathFileType	4	(X/Y/Z)	/Users/itak/Documents/Research/Walk-IL/dataset/trc/00196_00008.trc
DataRate	CameraRate	NumFrames	NumMarkers	Units	OrigDataRate	OrigDataStartFrame	OrigNumFrames
100.000000	100.000000	4	53	mm	100.000000	413	826
Frame#	Time	RPSI			LPSI			L3			STRN			T10			C7			CLAV			RBAK			LBAK			LSHO			LUPA			LAEL			LAOL			LWTS			LWPS			LFRA			LIFD			LHPS			LHTS			RSHO			RUPA			RAEL			RAOL			RWTS			RWPS			RFRA			RIFD			RHTS			RHPS			RBHD			LFHD			RFHD			LBHD			LHIP			RHIP			RASI			LASI			LKNE			LTHI			LANK			LTIP			LTOE			LMT1			LMT5			LHEE			RKNE			RTHI			RANK			RTIP			RTOE			RMT1			RMT5			RHEE			
		X1	Y1	Z1	X2	Y2	Z2	X3	Y3	Z3	X4	Y4	Z4	X5	Y5	Z5	X6	Y6	Z6	X7	Y7	Z7	X8	Y8	Z8	X9	Y9	Z9	X10	Y10	Z10	X11	Y11	Z11	X12	Y12	Z12	X13	Y13	Z13	X14	Y14	Z14	X15	Y15	Z15	X16	Y16	Z16	X17	Y17	Z17	X18	Y18	Z18	X19	Y19	Z19	X20	Y20	Z20	X21	Y21	Z21	X22	Y22	Z22	X23	Y23	Z23	X24	Y24	Z24	X25	Y25	Z25	X26	Y26	Z26	X27	Y27	Z27	X28	Y28	Z28	X29	Y29	Z29	X30	Y30	Z30	X31	Y31	Z31	X32	Y32	Z32	X33	Y33	Z33	X34	Y34	Z34	X35	Y35	Z35	X36	Y36	Z36	X37	Y37	Z37	X38	Y38	Z38	X39	Y39	Z39	X40	Y40	Z40	X41	Y41	Z41	X42	Y42	Z42	X43	Y43	Z43	X44	Y44	Z44	X45	Y45	Z45	X46	Y46	Z46	X47	Y47	Z47	X48	Y48	Z48	X49	Y49	Z49	X50	Y50	Z50	X51	Y51	Z51	X52	Y52	Z52	X53	Y53	Z53	

414	4.13	-170.9128570556641	1015.135070800781	-602.05126953125	-220.8377990722656	1024.034790039062	-714.7518310546875	-191.5737762451172	1054.102172851562	-649.3842163085938	43.0351448059082	1263.05029296875	-766.358154296875	-222.2298889160156	1218.959594726562	-625.21484375	-153.2140197753906	1484.43212890625	-665.3755493164062	17.63446235656738	1377.583862304688	-763.5487060546875	-172.355712890625	1312.05859375	-537.401123046875	-214.2076110839844	1462.81884765625	-747.6560668945312	-189.5068969726562	1450.1640625	-853.2055053710938	-270.7534790039062	1325.4462890625	-893.8338623046875	-303.4013366699219	1118.02294921875	-922.7118530273438	-281.4106140136719	1090.442749023438	-839.8363647460938	-241.5246276855469	884.7837524414062	-1011.433959960938	-321.9781799316406	869.5059204101562	-971.1945190429688	-319.1249389648438	1011.01611328125	-951.0509643554688	-239.9929962158203	697.2669677734375	-1026.999633789062	-315.6771240234375	800.7847290039062	-992.0279541015625	-262.855224609375	809.7344970703125	-1038.037231445312	-14.16992378234863	1458.550048828125	-538.8219604492188	-2.114906311035156	1390.128540039062	-468.6506958007812	-0.6424389481544495	1097.078247070312	-418.9365539550781	-52.98105621337891	1094.576538085938	-502.7952270507812	124.0113296508789	888.5086669921875	-529.0081787109375	76.96142578125	855.8895263671875	-457.6731262207031	31.64933586120605	1023.759033203125	-422.981201171875	132.4274444580078	706.9573974609375	-585.5309448242188	154.2024841308594	796.1671752929688	-546.1195068359375	102.2945098876953	777.4690551757812	-484.5086364746094	-64.25445556640625	1639.048828125	-637.1989135742188	58.20128631591797	1676.95654296875	-813.129150390625	98.59801483154297	1670.120483398438	-690.4678955078125	-110.9384841918945	1655.626831054688	-764.5780029296875	-166.7338409423828	980.7210693359375	-874.803955078125	16.60009956359863	957.8038940429688	-550.0899047851562	75.29278564453125	993.6139526367188	-627.4724731445312	-28.9937572479248	1016.27685546875	-860.4314575195312	45.45119094848633	513.423095703125	-939.0556030273438	-20.94041061401367	645.2256469726562	-940.1069946289062	54.14946365356445	29.29011535644531	-994.0975341796875	53.50052642822266	283.7706298828125	-977.4581909179688	264.0140075683594	77.17113494873047	-985.0308227539062	224.1254577636719	67.83301544189453	-934.6022338867188	157.5874938964844	33.42265319824219	-1035.627197265625	11.05205154418945	30.94914627075195	-920.5009155273438	-104.3234558105469	470.3630065917969	-595.2810668945312	18.35969352722168	722.7991943359375	-579.2562866210938	-408.8668212890625	79.17805480957031	-508.3291931152344	-162.2810821533203	353.2199401855469	-607.1627197265625	-271.5993347167969	39.38141632080078	-670.8117065429688	-335.6117248535156	47.37223052978516	-669.1342163085938	-306.8114929199219	37.48402786254883	-547.3348388671875	-484.9594421386719	113.8358535766602	-532.4017333984375	
415	4.14	-161.9801635742188	1016.355407714844	-608.468017578125	-211.0512084960938	1025.644287109375	-721.4744873046875	-182.6340026855469	1055.866088867188	-656.0625	52.24842834472656	1264.759033203125	-770.94775390625	-214.2264099121094	1220.292358398438	-632.7399291992188	-145.1854553222656	1485.84228515625	-672.5672607421875	26.66621780395508	1379.162109375	-768.4988403320312	-165.4765625	1313.636352539062	-544.4810180664062	-204.7898101806641	1464.26123046875	-755.6300659179688	-179.0436859130859	1451.69482421875	-860.779296875	-259.6478271484375	1326.860107421875	-902.5054931640625	-291.6164855957031	1119.287109375	-931.1661987304688	-270.2075500488281	1092.00048828125	-847.9190063476562	-229.6919860839844	885.5810546875	-1018.399169921875	-310.4303894042969	870.6699829101562	-978.5252685546875	-307.22119140625	1012.333984375	-959.1563110351562	-228.3144226074219	697.8659057617188	-1033.259643554688	-304.0279541015625	801.7800903320312	-998.9939575195312	-250.9728546142578	810.45703125	-1044.82861328125	-7.808697700500488	1460.56982421875	-544.4190063476562	3.467130899429321	1392.423950195312	-473.90576171875	3.30449652671814	1099.98046875	-423.22216796875	-47.06402969360352	1097.091064453125	-508.0259094238281	127.6361312866211	888.3350830078125	-527.6046752929688	79.09165954589844	857.633056640625	-456.6157836914062	35.16559219360352	1026.559814453125	-425.6451416015625	135.3919372558594	705.48193359375	-580.1363525390625	157.1896820068359	795.1587524414062	-542.1875	103.9869766235352	778.409423828125	-481.3433227539062	-56.96306991577148	1640.546508789062	-643.2642822265625	68.16481018066406	1678.748413085938	-817.3472290039062	106.5660934448242	1671.709106445312	-693.8965454101562	-102.6254043579102	1657.019897460938	-771.5499877929688	-155.1721649169922	983.1061401367188	-881.1016235351562	23.80382919311523	958.5299072265625	-554.178466796875	83.71337127685547	995.260986328125	-631.2440795898438	-17.05461883544922	1019.200744628906	-865.6089477539062	54.48500823974609	513.8389282226562	-943.9547119140625	-8.72276782989502	647.9307250976562	-945.4612426757812	54.35256958007812	28.20436096191406	-995.5634155273438	58.62545013427734	283.7362060546875	-981.5761108398438	265.0841979980469	73.36858367919922	-987.31884765625	225.3156433105469	65.71526336669922	-936.845703125	158.3174591064453	30.18457794189453	-1037.831665039062	11.51584434509277	32.1771125793457	-921.898681640625	-91.09967041015625	469.8105163574219	-600.2784423828125	26.95363426208496	722.9082641601562	-583.2930908203125	-407.2133483886719	85.05421447753906	-511.1560668945312	-150.4046478271484	352.4961242675781	-609.3478393554688	-269.5303039550781	39.94897079467773	-669.5133666992188	-332.6173706054688	49.23044586181641	-669.9742431640625	-306.2142028808594	37.94384384155273	-547.5003051757812	-481.0739440917969	122.9393005371094	-538.046630859375	
416	4.15	-153.3266143798828	1017.58447265625	-615.0824584960938	-200.9205474853516	1026.82666015625	-728.4349365234375	-174.1707305908203	1057.207275390625	-662.9617919921875	61.41471099853516	1266.556030273438	-775.2164916992188	-206.2467956542969	1221.688110351562	-640.1671142578125	-137.3239898681641	1487.329833984375	-679.576904296875	35.71862030029297	1380.925415039062	-773.2113037109375	-158.6051330566406	1315.315307617188	-551.3897705078125	-195.3301544189453	1465.759521484375	-763.4656982421875	-168.516845703125	1453.39013671875	-868.1580200195312	-248.4272613525391	1328.473388671875	-911.10791015625	-279.6385803222656	1120.74365234375	-939.6033325195312	-259.0690307617188	1093.723510742188	-855.9254150390625	-217.4601898193359	886.5759887695312	-1025.226928710938	-298.5743103027344	872.0032958984375	-985.9119873046875	-295.003662109375	1013.838806152344	-967.329833984375	-216.0845184326172	698.5775756835938	-1039.08837890625	-292.1878967285156	802.9390258789062	-1005.919006347656	-238.730712890625	811.20654296875	-1051.40625	-1.522374272346497	1462.709106445312	-549.8113403320312	9.085005760192871	1394.914428710938	-478.9978332519531	7.149442195892334	1103.06494140625	-427.4183349609375	-41.28324127197266	1099.80078125	-513.2081298828125	131.1939086914062	888.5152587890625	-526.1459350585938	81.19727325439453	859.7177734375	-455.5840148925781	38.61855316162109	1029.566040039062	-428.219970703125	137.9972076416016	704.4634399414062	-574.9857788085938	160.235595703125	794.7328491210938	-538.5354614257812	105.59228515625	779.760009765625	-478.2577209472656	-49.75637054443359	1642.03125	-649.25830078125	78.08268737792969	1680.590942382812	-821.4172973632812	114.5212478637695	1673.364379882812	-697.2660522460938	-94.83423614501953	1658.40283203125	-778.578369140625	-143.7547607421875	985.4185180664062	-887.4996337890625	31.2530345916748	959.6089477539062	-558.5319213867188	92.01866149902344	997.055908203125	-634.9324951171875	-5.073022365570068	1022.19873046875	-870.8248291015625	62.39337921142578	514.341552734375	-948.7264404296875	2.206210136413574	649.875732421875	-951.1732788085938	54.68197631835938	27.5270938873291	-996.7867431640625	63.28290557861328	283.8396301269531	-985.5928955078125	265.82373046875	70.82537841796875	-989.2918701171875	226.2575531005859	64.45552062988281	-939.0153198242188	158.6670989990234	27.86657524108887	-1039.875854492188	11.72346210479736	33.08506011962891	-923.3638916015625	-76.484130859375	469.4114685058594	-605.0226440429688	35.87184524536133	723.2291870117188	-587.3697509765625	-405.5738525390625	91.60236358642578	-515.0113525390625	-137.3766479492188	352.0938110351562	-611.2218627929688	-266.6064453125	40.66489028930664	-667.5236206054688	-328.5636596679688	51.27125549316406	-670.6185302734375	-305.7393493652344	38.58098983764648	-547.6650390625	-475.8475646972656	132.9266662597656	-544.0513305664062	
417	4.16	-145.1134796142578	1018.849914550781	-621.8508911132812	-190.6700134277344	1027.9296875	-735.6410522460938	-165.9724426269531	1058.335571289062	-669.99365234375	70.60447692871094	1268.388427734375	-779.0942993164062	-198.2510528564453	1223.120361328125	-647.5441284179688	-129.68896484375	1488.910888671875	-686.4461059570312	44.79299163818359	1382.830688476562	-777.6666870117188	-151.8740081787109	1317.05810546875	-558.2017211914062	-186.0549774169922	1467.347778320312	-771.1834106445312	-157.9126281738281	1455.168212890625	-875.375244140625	-237.0805816650391	1330.192504882812	-919.6126098632812	-267.4914855957031	1122.29931640625	-948.0156860351562	-248.0742950439453	1095.558471679688	-863.9050903320312	-204.8416900634766	887.6643676757812	-1031.940795898438	-286.4246520996094	873.4275512695312	-993.3912353515625	-282.6073913574219	1015.398010253906	-975.5355224609375	-203.6576995849609	699.3562622070312	-1044.404907226562	-280.0587158203125	804.1814575195312	-1012.847900390625	-226.0521392822266	811.9407958984375	-1057.807861328125	4.712496280670166	1464.890258789062	-554.9818115234375	14.6518726348877	1397.486450195312	-483.8904113769531	10.9322509765625	1106.177978515625	-431.4881286621094	-35.19501495361328	1102.4189453125	-518.177490234375	134.7921600341797	889.0167236328125	-524.662109375	83.33995819091797	862.0294189453125	-454.614990234375	42.04905700683594	1032.65185546875	-430.6907043457031	140.2991333007812	703.791748046875	-569.9512329101562	163.1771697998047	794.7000122070312	-535.0629272460938	107.198616027832	781.4287719726562	-475.3191528320312	-42.54814529418945	1643.598754882812	-655.1724243164062	87.95993041992188	1682.431762695312	-825.2881469726562	122.4512939453125	1675.0751953125	-700.564697265625	-86.59619903564453	1659.841918945312	-785.3922729492188	-132.4954376220703	987.84326171875	-893.9496459960938	38.79033660888672	960.8858032226562	-563.091552734375	99.96868896484375	998.72265625	-638.4830322265625	6.274067878723145	1024.745849609375	-875.7008666992188	69.29103088378906	514.688232421875	-953.0969848632812	11.55704212188721	651.3154296875	-956.8443603515625	54.94906616210938	27.19034385681152	-997.5020141601562	67.37796783447266	283.8851623535156	-988.9114990234375	266.2054443359375	69.07579040527344	-990.142578125	226.4565734863281	63.56691360473633	-939.8829345703125	158.6373443603516	26.62881660461426	-1040.978881835938	11.72983837127686	33.56393051147461	-924.319580078125	-61.26180648803711	468.7142639160156	-609.0233154296875	46.56269836425781	724.82861328125	-592.3352661132812	-403.32666015625	99.03546142578125	-519.6192626953125	-124.3494186401367	352.2152709960938	-613.6339111328125	-263.7435913085938	40.99951171875	-665.2691650390625	-323.764892578125	53.00871658325195	-671.0523681640625	-305.5467834472656	39.48768997192383	-547.895263671875	-469.6047668457031	143.3876647949219	-551.3297729492188	
